<?xml version="1.0" standalone="no"?>
<!DOCTYPE svg PUBLIC "-//W3C//DTD SVG 20010904//EN"
 "http://www.w3.org/TR/2001/REC-SVG-20010904/DTD/svg10.dtd">
<svg version="1.0" xmlns="http://www.w3.org/2000/svg"
 width="89.000000pt" height="86.000000pt" viewBox="0 0 89.000000 86.000000"
 preserveAspectRatio="xMidYMid meet">

<g transform="translate(0.000000,86.000000) scale(0.100000,-0.100000)"
fill="#000000" stroke="none">
<path d="M0 430 l0 -430 445 0 445 0 0 430 0 430 -445 0 -445 0 0 -430z m210
5 l0 -275 -30 0 -30 0 0 275 0 275 30 0 30 0 0 -275z m486 251 c60 -28 69 -38
54 -66 -10 -20 -11 -19 -50 6 -26 18 -58 27 -98 31 -83 8 -141 -20 -180 -85
-24 -42 -27 -57 -27 -137 0 -103 21 -156 76 -196 58 -41 168 -38 233 6 35 24
36 24 47 4 33 -63 -141 -114 -265 -77 -61 19 -121 84 -142 154 -25 86 -16 194
21 263 46 83 112 120 220 120 43 1 75 -6 111 -23z"/>
</g>
</svg>
